<?xml version="1.0" encoding="UTF-8"?>
<svg width="140px" height="32px" viewBox="0 0 140 32" version="1.1" xmlns="http://www.w3.org/2000/svg" xmlns:xlink="http://www.w3.org/1999/xlink">
    <!-- Generator: sketchtool 53 (72520) - https://sketchapp.com -->
    <title>81B02BAA-1D0F-4578-81EC-60ACED70AD4E</title>
    <desc>Created with sketchtool.</desc>
    <g id="ponddy.ai" stroke="none" stroke-width="1" fill="none" fill-rule="evenodd">
        <g id="Career" transform="translate(-419.000000, -17.000000)">
            <rect fill="#FFFFFF" x="0" y="0" width="1920" height="4664"></rect>
            <g id="nav">
                <g id="Ponddy-logo" transform="translate(419.000000, 17.000000)">
                    <path d="M4.46006161,15.8111663 C9.47219431,16.0752505 11.3741374,15.3608084 11.3741374,15.3608084 C16.1092559,13.2979874 15.0091611,8.13352421 15.0091611,8.13352421 C13.7946114,3.71853474 9.59826066,3.49184 9.59826066,3.49184 L0.00262085308,3.51474526 L0.0387819905,19.0957137 L0.363900474,19.09504 C1.18930332,15.1031242 4.46006161,15.8111663 4.46006161,15.8111663" id="Fill-1" fill="#50C0E1"></path>
                    <path d="M23.8402749,18.8677389 L19.3599431,18.9310653 C19.3599431,18.9310653 15.1921232,19.8614232 17.2227867,24.40576 C17.2227867,24.40576 18.10691,25.8767495 20.4378104,25.8184758 L28.1354882,25.8056758 L28.1102749,14.9711495 L27.7818389,14.9664337 C27.8107014,16.1548126 27.490891,18.9418442 23.8402749,18.8677389" id="Fill-3" fill="#50C0E1"></path>
                    <path d="M2.74768246,28.9039158 C2.81536019,28.9086316 2.88370142,28.9109895 2.95270616,28.9109895 C3.10763507,28.9106526 3.25990995,28.9140211 3.40820379,28.8901053 L3.40720853,28.6829474 L3.38564455,19.4231579 L3.3859763,19.3244632 C3.38564455,19.1193263 3.5445545,18.9522526 3.74227962,18.9478737 C3.74227962,18.9478737 4.37360664,18.9401263 4.37393839,18.9472 L9.06128436,18.9360842 L9.19730332,18.9293474 C14.2406209,18.9172211 18.3195308,14.7562105 18.3075877,9.63553684 C18.2956445,4.51486316 14.1974929,0.373389474 9.15417536,0.385515789 L2.89232701,0.391578947 C2.1860237,0.393263158 1.53910427,0.652631579 1.03848815,1.08109474 L1.20867773,1.08547368 L8.78692417,1.06694737 L9.1581564,1.0656 C13.8342227,1.05414737 17.6337962,4.89414737 17.6450758,9.64193684 C17.6560237,14.3897263 13.8743649,18.2475789 9.19796682,18.2586947 L9.05962559,18.2654316 L4.50464929,18.2762105 L3.74725592,18.2839579 C3.18161611,18.2853053 2.72412796,18.7514947 2.72545498,19.3258105 L2.72512322,19.4245053 L2.74735071,28.9109895" id="Fill-5" fill="#1B7892"></path>
                    <path d="M1.42537915,28.4756211 L1.40447867,19.4280421 L1.40381517,19.3293474 C1.40082938,18.0102737 2.44850711,16.9384421 3.74400474,16.9354105 L4.09367299,16.9360842 L9.05670616,16.9242947 L9.19007109,16.9178947 C13.1422512,16.9084632 16.3383649,13.6478316 16.3290758,9.63503158 C16.3197867,5.62256842 13.1084123,2.37743158 9.15623223,2.38686316 L8.78035545,2.38753684 L0.280165877,2.40774737 L0.15443128,2.40808421 C0.232061611,2.16791579 0.339549763,1.94189474 0.472251185,1.73338947 L0.56978673,1.73709474 L8.81751185,1.71755789 L9.15490521,1.71621053 C13.4716825,1.70576842 16.9793128,5.25069474 16.9895972,9.63334737 C16.9998815,14.0166737 13.5085071,17.5781053 9.19172986,17.5888842 L9.02120853,17.5949474 L3.74566351,17.6060632 C2.81509479,17.6084211 2.06234597,18.3791158 2.06466825,19.3276632 L2.06466825,19.4263579 L2.08623223,28.6369684 L2.08225118,28.7774316 C1.84969194,28.704 1.62973934,28.6009263 1.42637441,28.4729263" id="Fill-7" fill="#1B7892"></path>
                    <path d="M26.7722796,0.958854737 L26.805455,15.2776758 L26.804128,15.46496 C26.8071137,16.7863916 25.7547915,17.8605811 24.4529905,17.8636126 L24.2718531,17.8642863 L20.2894834,17.8737179 L19.9852654,17.8787705 C17.5525166,17.8848337 15.5848863,19.8917389 15.5908578,22.3621389 C15.5964976,24.8322021 17.5734171,26.8300126 20.0061659,26.8239495 L20.5694834,26.8222653 L27.8989147,26.8044126 L28.0113791,26.8003705 C27.9377299,27.0391916 27.8348863,27.2652126 27.7068294,27.4733811 L27.6092938,27.4760758 L20.5761185,27.4925811 L20.0078246,27.4949389 C17.2101469,27.5016758 14.9366398,25.2044126 14.9300047,22.3634863 C14.9233697,19.5228968 17.1859289,17.2148547 19.9839384,17.2077811 L20.2364028,17.2131705 L24.2506209,17.2037389 L24.4513318,17.2040758 C25.3941754,17.2017179 26.1568768,16.4236126 26.1545545,15.4663074 L26.1515687,15.2924968 L26.1173981,0.644917895 L26.109436,0.486602105 C26.3443175,0.56576 26.5655972,0.674223158 26.7696256,0.808623158 L26.7722796,0.958854737 Z" id="Fill-9" fill="#1B7892"></path>
                    <path d="M25.450109,0.482223158 L25.4846114,15.3005811 L25.4826209,15.4679916 C25.4839479,16.0487074 25.0214834,16.5202863 24.449872,16.5216337 L24.1131422,16.5233179 L20.364327,16.5320758 L20.0146588,16.5371284 L19.9821469,16.5371284 C16.8195403,16.5448758 14.2617204,19.1540547 14.2693507,22.3651705 C14.2766493,25.5762863 16.8467441,28.1733389 20.0093507,28.1659284 L20.5726682,28.1682863 L26.9502986,28.1527916 L27.1337583,28.1507705 C26.6298246,28.5893389 25.9749431,28.8554442 25.259019,28.8571284 L25.0161754,28.8578021 L20.574327,28.8682442 L20.0110095,28.8695916 C16.4652275,28.8783495 13.5842796,25.9666863 13.5759858,22.3668547 C13.5676919,18.7666863 16.4350379,15.8418863 19.9804882,15.8331284 L20.1941374,15.8324547 L24.3188294,15.8226863 L24.4482133,15.8172968 C24.6366493,15.8166232 24.7892559,15.6613389 24.7889242,15.4696758 L24.79191,15.2823916 L24.7577393,0.549591579 L24.7534265,0.352202105 C24.8967441,0.329970526 25.0430474,0.338391579 25.1926682,0.338054737 C25.2785924,0.337717895 25.3641848,0.34176 25.4484502,0.348833684 L25.450109,0.482223158 Z" id="Fill-11" fill="#1B7892"></path>
                    <path d="M9.13344076,3.05589895 L8.64111848,3.05623579 L-6.63507109e-05,3.07577263 L0.00159241706,3.77067789 L0.172777251,3.76933053 L8.76585782,3.74878316 L8.86571564,3.74541474 L9.10822749,3.74474105 L9.27443602,3.74743579 C12.4221137,3.81480421 14.9570427,6.42297263 14.964673,9.63712 C14.9723033,12.8984253 12.374673,15.5483621 9.16230332,15.5557726 L9.02893839,15.5621726 L4.17272986,15.5736253 L3.71623697,15.5746358 C1.66898578,15.5796884 0.0132037915,17.26592 0.0181800948,19.3408674 L0.0324454976,25.4747621 L0.0304549763,25.9924884 C0.0347677725,26.7244463 0.303156398,27.3927411 0.743393365,27.9044042 L0.738085308,27.56352 L0.719175355,19.4277726 L0.718511848,19.3294147 C0.714862559,17.64352 2.05746919,16.2735832 3.71789573,16.2698779 L4.07718483,16.2641516 L8.99344076,16.2523621 L9.16396209,16.2459621 C12.7512133,16.2372042 15.6523981,13.2777095 15.6441043,9.63543579 C15.6354787,5.99316211 12.7206919,3.04747789 9.13344076,3.05589895" id="Fill-14" fill="#1B7892"></path>
                    <path d="M28.1347583,25.4670821 L27.992436,25.4680926 L20.597981,25.4859453 L20.01509,25.48224 C18.3121991,25.4862821 16.928455,24.0877137 16.9244739,22.3587032 C16.9204929,20.6300295 18.2976019,19.2247242 20.0004929,19.2206821 L20.2141422,19.2149558 L24.1188815,19.2055242 L24.468218,19.2014821 C26.4975545,19.1967663 28.1390711,17.5223242 28.1340948,15.4618611 L28.1025782,3.26682947 C28.1005877,2.55474526 27.849782,1.90228211 27.4330995,1.39499789 L27.4367488,1.62135579 L27.4685972,15.3352084 L27.4705877,15.4109979 C27.4745687,17.1282189 26.1064171,18.5237558 24.4148057,18.5277979 L24.2787867,18.5345347 L20.2386919,18.5443032 L19.9991659,18.5496926 C17.931346,18.5547453 16.2586445,20.2608505 16.2636209,22.3603874 C16.2685972,24.4602611 17.9489289,26.1582821 20.0167488,26.1532295 L20.57509,26.1515453 L28.0325782,26.1336926 L28.1364171,26.1343663 L28.1347583,25.4670821 Z" id="Fill-17" fill="#1B7892"></path>
                    <path d="M136.648626,9.10851368 L132.120853,21.3584505 L127.445118,9.10851368 L124.237393,9.10851368 L130.628626,25.08224 L127.791137,31.8746611 L129.391517,31.8746611 C130.364882,31.8746611 131.239384,31.2713768 131.597678,30.3524716 L139.885213,9.10851368 L136.648626,9.10851368 Z" id="Fill-19" fill="#1B7892"></path>
                    <path d="M77.5352844,8.76904421 C76.453436,8.76904421 75.451872,9.03144421 74.5644313,9.54647579 C73.8922986,9.91161263 73.304763,10.4098021 72.8111137,11.0326232 L72.8111137,9.20491789 L69.8608294,9.20491789 L69.8608294,25.8061811 L72.8111137,25.8061811 L72.810782,15.8555284 C72.8996919,14.4424758 73.3379384,13.3544758 74.1504028,12.53056 C74.9068009,11.7628968 75.7832938,11.3896758 76.8293128,11.3896758 C79.4713981,11.3896758 80.7556161,12.8451705 80.7556161,15.8396968 L80.7556161,25.8061811 L83.7062322,25.8061811 L83.7062322,15.6530863 C83.7062322,11.0851705 81.6301185,8.76904421 77.5352844,8.76904421" id="Fill-21" fill="#1B7892"></path>
                    <path d="M98.1741374,13.0144337 C99.0164597,14.1438653 99.4434265,15.6219284 99.4434265,17.4085389 L99.4434265,17.7197811 C99.4434265,19.4501389 99.065891,20.8790232 98.3247536,21.9619705 C97.476128,23.1500126 96.3269336,23.7270232 94.8114834,23.7270232 C93.2004882,23.7270232 91.9676919,23.1240758 91.1479289,21.93536 C90.4137583,20.8628547 90.0564597,19.4124126 90.0564597,17.5015074 C90.0564597,15.5916126 90.4220521,14.1637389 91.1738057,13.1367074 L91.1781185,13.1313179 C91.9842796,11.9628126 93.2376445,11.3703074 94.9037109,11.3703074 C96.2721943,11.3703074 97.3420995,11.9085811 98.1741374,13.0144337 L98.1741374,13.0144337 Z M99.3820521,11.5663495 C98.1482607,9.73763368 96.4699194,8.81199158 94.3818626,8.81199158 C92.0111517,8.81199158 90.2097299,9.69047579 88.8774076,11.4932547 C87.6439479,13.0972968 87.0448009,15.0624337 87.0448009,17.5015074 C87.0448009,19.98976 87.6611991,22.0532547 88.8770758,23.6343916 C90.2253223,25.3930442 92.1186398,26.2850021 94.5046114,26.2850021 C96.6908673,26.2850021 98.3794929,25.4580547 99.535654,23.8250442 L99.535654,25.8494653 L102.332668,25.8494653 L102.332668,2.97552842 L99.3820521,2.97552842 L99.3820521,11.5663495 Z" id="Fill-23" fill="#1B7892"></path>
                    <path d="M116.679583,12.9713516 C117.521905,14.1007832 117.948872,15.5788463 117.948872,17.3654568 L117.948872,17.6766989 C117.948872,19.4070568 117.571336,20.8359411 116.829867,21.9188884 C115.981573,23.1069305 114.832711,23.6839411 113.316929,23.6839411 C111.706265,23.6839411 110.473469,23.0813305 109.653374,21.8922779 C108.919204,20.8194358 108.562237,19.3689937 108.562237,17.4587621 C108.562237,15.5485305 108.927829,14.1209937 109.679583,13.0936253 L109.683564,13.0882358 C110.489725,11.9197305 111.74309,11.3272253 113.409156,11.3272253 C114.777972,11.3272253 115.847877,11.8654989 116.679583,12.9713516 L116.679583,12.9713516 Z M117.887498,11.5232674 C116.653706,9.69455158 114.975365,8.76890947 112.887308,8.76890947 C110.516929,8.76890947 108.715175,9.64739368 107.382853,11.4501726 C106.149725,13.0542147 105.550246,15.0193516 105.550246,17.4587621 C105.550246,19.9466779 106.166645,22.0101726 107.382521,23.5913095 C108.730768,25.3499621 110.624085,26.24192 113.010057,26.24192 C115.196313,26.24192 116.884938,25.4149726 118.0411,23.7819621 L118.0411,25.8063832 L120.838114,25.8063832 L120.838114,2.97556211 L117.887498,2.97556211 L117.887498,11.5232674 Z" id="Fill-25" fill="#1B7892"></path>
                    <path d="M63.8484929,17.5101642 C63.8484929,20.4083537 62.2723318,23.5265011 58.8108152,23.5265011 C55.3496303,23.5265011 53.7728057,20.4083537 53.7728057,17.5101642 C53.7728057,14.6288168 55.3496303,11.5275116 58.8108152,11.5275116 C62.2723318,11.5275116 63.8484929,14.6288168 63.8484929,17.5101642 M58.8108152,8.76911158 C54.0869763,8.76911158 50.6583033,12.4454063 50.6583033,17.5101642 C50.6583033,22.5947958 54.0869763,26.2852379 58.8108152,26.2852379 C63.534654,26.2852379 66.963327,22.5947958 66.963327,17.5101642 C66.963327,12.4454063 63.534654,8.76911158 58.8108152,8.76911158" id="Fill-27" fill="#1B7892"></path>
                    <path d="M36.9936398,5.80688842 L42.5080474,5.80688842 C44.9879052,5.80688842 46.6539716,7.41733053 46.6539716,9.81429895 C46.6539716,12.2116042 44.9879052,13.8217095 42.5080474,13.8217095 L36.9936398,13.8217095 L36.9936398,5.80688842 Z M42.8341611,2.97573053 L36.1622654,2.97573053 C34.9185213,2.97573053 33.9099905,3.99973053 33.9099905,5.26255158 L33.9099905,23.5160253 C33.9099905,24.7778358 34.9171943,25.8004884 36.1599431,25.8004884 L36.9936398,25.8004884 L36.9936398,16.6528674 L42.8341611,16.6528674 C46.9565308,16.6528674 49.8351564,13.8409095 49.8351564,9.81429895 C49.8351564,5.78802526 46.9565308,2.97573053 42.8341611,2.97573053 L42.8341611,2.97573053 Z" id="Fill-29" fill="#1B7892"></path>
                </g>
            </g>
        </g>
    </g>
</svg>