<svg width="24" height="24" viewBox="0 0 24 24" fill="none" xmlns="http://www.w3.org/2000/svg">
<path d="M2.75171 9.99969C2.75171 6.15042 6.73711 2.74969 12.0017 2.74969C17.2663 2.74969 21.2517 6.15042 21.2517 9.99969C21.2517 13.6961 17.5857 16.9752 12.6219 17.2332C12.2766 17.2511 11.93 17.366 11.6368 17.5859L8.15171 20.1997L8.60171 20.7997L8.15171 20.1997C7.9869 20.3233 7.75171 20.2057 7.75171 19.9997V17.576C7.75171 16.8825 7.3455 16.2889 6.77774 15.9872L6.42576 16.6494L6.77773 15.9872C4.21115 14.6231 2.75171 12.3912 2.75171 9.99969Z" stroke="#576168" stroke-width="1.5" stroke-linecap="round" stroke-linejoin="round"/>
<path d="M9 10L11 12L15 8" stroke="#576168" stroke-width="1.5" stroke-linecap="round" stroke-linejoin="round"/>
</svg>
