<?xml version="1.0" encoding="UTF-8"?>
<svg width="518px" height="426px" viewBox="0 0 518 426" version="1.1" xmlns="http://www.w3.org/2000/svg" xmlns:xlink="http://www.w3.org/1999/xlink">
    <!-- Generator: sketchtool 52.4 (67378) - http://www.bohemiancoding.com/sketch -->
    <title>AE111679-70E9-4765-9C80-D45A5D5A71D4</title>
    <desc>Created with sketchtool.</desc>
    <g id="tutors" stroke="none" stroke-width="1" fill="none" fill-rule="evenodd">
        <g id="Tutors_landpage_mockup" transform="translate(0.000000, -1335.000000)" fill-rule="nonzero">
            <g id="Group-7" transform="translate(-113.000000, 802.000000)">
                <g id="girl">
                    <g id="Group-17" transform="translate(0.000000, 533.000000)">
                        <path d="M137.819744,425.747766 C63.4432095,423.248913 -43.3787859,302.689151 20.3437357,185.003351 C84.0662574,67.3175511 155.492645,19.8464162 346.295165,40.7253916 C537.097684,61.604367 633.745995,187.45316 630.563449,249.273842 C627.380903,311.094525 577.708884,349.644647 391.401921,368.661207 C205.094958,387.677767 212.196279,428.246619 137.819744,425.747766 Z" id="Path-4" fill="#52BFD7"></path>
                        <path d="M123.689145,70.440372 C190.85352,-4.50492774 214.994919,-32.1520303 442.770066,50.7333585 C670.545214,133.618747 598.625273,319.022841 570.068336,345.981225 C541.5114,372.939609 457.232473,420.218694 294.042204,383.591363 C130.851935,346.964032 56.5247695,145.385672 123.689145,70.440372 Z" id="Path-5" fill-opacity="0.2" fill="#52C0D8"></path>
                    </g>
                </g>
            </g>
        </g>
    </g>
</svg>