<?xml version="1.0" encoding="UTF-8"?>
<svg width="421px" height="618px" viewBox="0 0 421 618" version="1.1" xmlns="http://www.w3.org/2000/svg" xmlns:xlink="http://www.w3.org/1999/xlink">
    <!-- Generator: sketchtool 52.4 (67378) - http://www.bohemiancoding.com/sketch -->
    <title>6887F147-5102-47B8-B1B2-03E430CEAD4B</title>
    <desc>Created with sketchtool.</desc>
    <g id="tutors" stroke="none" stroke-width="1" fill="none" fill-rule="evenodd">
        <g id="Tutors_landpage_mockup" transform="translate(-1501.000000, -4452.000000)" fill-rule="nonzero">
            <g id="Group-3-Copy" transform="translate(1858.195219, 4768.496455) rotate(-179.000000) translate(-1858.195219, -4768.496455) translate(1506.195219, 4457.996455)">
                <path d="M140.478296,592.660934 C223.115532,603.418707 218.366266,546.04392 427.333988,537.676763 C636.30171,529.309607 694.622702,480.301976 702.98141,394.239795 C711.340119,308.177614 613.505231,122.904864 402.637802,75.0925414 C191.770374,27.2802188 108.527189,86.6265189 28.3956091,244.826287 C-51.7359708,403.026055 57.8410609,581.903162 140.478296,592.660934 Z" id="Path-4" fill="#52BFD7"></path>
                <path d="M130.741028,58.969911 C224.845305,-18.1746293 258.874933,-46.8634044 480.542785,147.981193 C702.210637,342.825791 571.034978,567.840734 532.442719,593.995675 C493.85046,620.150617 389.290153,653.620854 223.894757,544.842582 C58.499361,436.06431 36.6367512,136.114451 130.741028,58.969911 Z" id="Path-5" fill-opacity="0.2" fill="#52C0D8"></path>
            </g>
        </g>
    </g>
</svg>