<?xml version="1.0" encoding="UTF-8"?>
<svg width="1928px" height="827px" viewBox="0 0 1928 827" version="1.1" xmlns="http://www.w3.org/2000/svg" xmlns:xlink="http://www.w3.org/1999/xlink">
    <!-- Generator: sketchtool 52.4 (67378) - http://www.bohemiancoding.com/sketch -->
    <title>DCA21779-373E-45F4-A188-C69F8B43A8D0</title>
    <desc>Created with sketchtool.</desc>
    <g id="tutors" stroke="none" stroke-width="1" fill="none" fill-rule="evenodd">
        <g id="Tutors_landpage_mockup" transform="translate(1.000000, -65.000000)" fill-rule="nonzero">
            <g id="7--CTA" transform="translate(989.919353, 433.390425) rotate(179.000000) translate(-989.919353, -433.390425) translate(-297.080647, -31.609575)">
                <g id="patten" transform="translate(1287.403994, 464.883557) scale(-1, 1) rotate(-180.000000) translate(-1287.403994, -464.883557) translate(0.903994, 0.383557)">
                    <path d="M2296.31494,810.624968 C2149.1104,867.786072 1809.03278,940.233534 1530.46316,829.678342 C1251.89355,719.123149 966.781702,735.901895 712.195254,834.760549 C457.608806,933.619204 216.491037,912.445694 59.5713434,865.393182 C-3.56591713,846.461418 -138.570491,208.826283 453.198192,39.4801795 C841.940433,-71.7659634 1860.21326,245.876289 2322.33174,66.4307149 C2850.65838,475.78879 2394.4513,772.517565 2296.31494,810.624968 Z" id="Path-2" fill="#FFFFFF"></path>
                    <path d="M2296.8661,810.627769 C2149.66033,867.787174 1809.57985,940.232483 1531.00791,829.680576 C1252.43596,719.12867 967.321727,735.906917 712.733148,834.762633 C458.144569,933.618348 217.024782,912.445468 60.1037744,865.394355 C21.5671698,853.83956 86.8486662,597.121279 255.948264,95.2395123 L2342.92023,74.9038906 C2377.64226,539.982296 2362.29088,785.223588 2296.8661,810.627769 Z" id="Path-2" fill="#52BFD7"></path>
                    <path d="M217.683199,862.47297 C115.505743,826.851805 -167.977099,594.60418 533.994472,76.174867 C1385.61165,55.3344251 1954.49434,-94.5747664 2209.38288,95.2395123 C2288.69737,154.304639 2481.44815,853.123426 2457.46844,861.18408 C2305.9055,912.131168 2067.42331,939.327265 1802.35341,846.918439 C1537.2835,754.509613 1250.71165,744.88366 984.609361,862.332397 C718.507072,979.781134 370.949382,915.904716 217.683199,862.47297 Z" id="Path-2-Copy" fill-opacity="0.2" fill="#52C0D8"></path>
                </g>
            </g>
        </g>
    </g>
</svg>