<?xml version="1.0" encoding="UTF-8"?>
<svg width="1920px" height="1354px" viewBox="0 0 1920 1354" version="1.1" xmlns="http://www.w3.org/2000/svg" xmlns:xlink="http://www.w3.org/1999/xlink">
    <!-- Generator: sketchtool 52.4 (67378) - http://www.bohemiancoding.com/sketch -->
    <title>0F7B6BE4-E3DF-4C4E-87C8-3D5C335BF59C</title>
    <desc>Created with sketchtool.</desc>
    <g id="tutors" stroke="none" stroke-width="1" fill="none" fill-rule="evenodd">
        <g id="Tutors_landpage_mockup" transform="translate(0.000000, -2254.000000)" fill-rule="nonzero">
            <g id="Group-6" transform="translate(-281.000000, 2254.000000)">
                <g id="STB-bg">
                    <path d="M2247.77009,760.255986 C2100.56432,817.415391 1760.48385,889.8607 1481.9119,779.308793 C1203.33996,668.756887 918.225721,685.535134 663.637142,784.39085 C409.048563,883.246566 167.928776,862.073686 11.0077684,815.022572 C-27.5288362,803.467777 37.7526602,546.749496 206.852258,44.8677295 L2293.82423,24.5321078 C2328.54626,489.610513 2313.19488,734.851806 2247.77009,760.255986 Z" id="Path-2" fill="#52BFD7" transform="translate(1156.080685, 439.505887) scale(-1, 1) rotate(-540.000000) translate(-1156.080685, -439.505887) "></path>
                    <path d="M168.587193,862.986465 C66.4097373,827.3653 -217.073105,595.117675 484.898466,76.6883619 C1336.51564,55.8479201 1905.39834,-94.0612714 2160.28687,95.7530072 C2239.60137,154.818134 2432.35215,853.636921 2408.37244,861.697575 C2256.80949,912.644663 2018.32731,939.84076 1753.2574,847.431934 C1488.18749,755.023108 1201.61564,745.397155 935.513355,862.845892 C669.411066,980.294629 321.853376,916.418211 168.587193,862.986465 Z" id="Path-2-Copy" fill-opacity="0.2" fill="#52C0D8" transform="translate(1217.741062, 464.948526) scale(-1, 1) rotate(-540.000000) translate(-1217.741062, -464.948526) "></path>
                    <path d="M2378.83423,1236 C2231.62846,1293.15941 2052.25152,1401.18212 1505.10001,1326 C957.948506,1250.81788 532.010004,994 132.010004,956 C80.6554864,951.121321 133.939572,812.739973 291.862262,540.855955 L2378.83423,520.520334 C2444.25902,972.102598 2444.25902,1210.59582 2378.83423,1236 Z" id="Path-2" fill="#52BFD7" transform="translate(1270.505002, 936.116270) scale(-1, 1) rotate(-360.000000) translate(-1270.505002, -936.116270) "></path>
                    <path d="M453.91624,1059 C351.738785,1023.37884 -350.142339,1062.3542 351.829231,543.924889 C1203.4464,523.084447 1957.13269,541.524889 2417.20311,540.855955 C2609.80901,540.57591 2689.26839,1298.73987 2665.28868,1306.80052 C2513.72573,1357.74761 2275.24355,1384.94371 2010.17364,1292.53488 C1745.10373,1200.12606 1817.9367,1324.53488 1542.91624,1292.53488 C1267.89578,1260.53488 607.182424,1112.43175 453.91624,1059 Z" id="Path-2-Copy" fill-opacity="0.2" fill="#52C0D8" transform="translate(1356.458120, 943.749574) scale(-1, 1) rotate(-360.000000) translate(-1356.458120, -943.749574) "></path>
                </g>
            </g>
        </g>
    </g>
</svg>